<?xml version="1.0" standalone="no"?>
<!DOCTYPE svg PUBLIC "-//W3C//DTD SVG 20010904//EN"
 "http://www.w3.org/TR/2001/REC-SVG-20010904/DTD/svg10.dtd">
<svg version="1.0" xmlns="http://www.w3.org/2000/svg"
 width="640.000000pt" height="640.000000pt" viewBox="0 0 640.000000 640.000000"
 preserveAspectRatio="xMidYMid meet">

<g transform="translate(0.000000,640.000000) scale(0.100000,-0.100000)"
fill="#000000" stroke="none">
<path d="M230 4722 c0 -4 4 -12 9 -17 4 -6 142 -353 306 -772 l298 -763 1929
0 1928 0 0 780 0 780 -2235 0 c-1229 0 -2235 -4 -2235 -8z"/>
<path d="M4750 3545 l0 -425 -1944 0 -1944 0 52 -132 c29 -73 92 -233 140
-355 l88 -223 202 0 203 0 -23 -67 c-59 -171 -11 -380 114 -508 168 -172 416
-209 619 -94 97 56 192 168 229 272 37 103 34 263 -5 352 l-20 45 1239 0 1238
0 -21 -52 c-31 -78 -31 -269 1 -350 89 -223 309 -356 544 -327 197 24 375 181
428 377 19 75 14 202 -13 281 l-23 71 148 0 c119 0 150 3 154 14 8 21 -12 239
-31 331 -105 515 -481 951 -968 1125 -119 42 -329 90 -396 90 -8 0 -11 -133
-11 -425z m777 -1113 c47 -25 109 -91 131 -141 23 -53 21 -165 -5 -222 -46
-103 -141 -163 -258 -163 -140 0 -249 89 -273 224 -42 233 194 409 405 302z
m-3400 5 c133 -70 189 -213 138 -355 -67 -186 -323 -236 -462 -90 -65 68 -91
181 -63 277 21 73 94 150 169 178 48 18 176 12 218 -10z"/>
</g>
</svg>
